<?xml version="1.0" encoding="utf-8"?>
<svg viewBox="0 0 32 32" xmlns="http://www.w3.org/2000/svg">
  <path d="M 21.348 10 L 14.586 10 C 14.413 10 14.247 10.069 14.125 10.191 L 10.191 14.124 C 10.069 14.247 10 14.413 10 14.586 L 10 21.346 C 10 21.707 10.292 21.999 10.653 21.999 L 21.348 21.999 C 21.708 21.999 22 21.707 22 21.346 L 22 10.653 C 22 10.292 21.708 10 21.348 10 Z M 20.694 20.694 L 11.306 20.694 L 11.306 14.857 L 14.857 11.306 L 20.694 11.306 L 20.694 20.694 Z M 13.327 13.933 C 12.966 13.933 12.674 14.226 12.674 14.586 L 12.674 17.093 C 12.674 17.453 12.966 17.746 13.327 17.746 C 13.688 17.746 13.98 17.453 13.98 17.093 L 13.98 14.586 C 13.98 14.226 13.688 13.933 13.327 13.933 Z M 16 17.746 C 16.361 17.746 16.653 17.453 16.653 17.093 L 16.653 12.745 C 16.653 12.384 16.361 12.092 16 12.092 C 15.639 12.092 15.348 12.384 15.348 12.745 L 15.348 17.093 C 15.348 17.453 15.639 17.746 16 17.746 Z M 18.674 17.746 C 19.034 17.746 19.326 17.453 19.326 17.093 L 19.326 12.745 C 19.326 12.384 19.034 12.092 18.674 12.092 C 18.313 12.092 18.02 12.384 18.02 12.745 L 18.02 17.093 C 18.02 17.453 18.312 17.746 18.674 17.746 Z" style="fill: rgb(255, 84, 84);"/>
</svg>